<?xml version="1.0" encoding="iso-8859-1"?>
<!-- Generator: Adobe Illustrator 18.1.1, SVG Export Plug-In . SVG Version: 6.00 Build 0)  -->
<svg xmlns="http://www.w3.org/2000/svg" xmlns:xlink="http://www.w3.org/1999/xlink" version="1.1" id="Capa_1" x="0px" y="0px" viewBox="0 0 22.077 22.077" style="enable-background:new 0 0 22.077 22.077;" xml:space="preserve" width="512px" height="512px">
<g>
	<path d="M13.782,13.917c0.605,0.297,1.217,0.642,1.841,1.037c0.622,0.393,1.207,0.839,1.749,1.333   c0.546,0.497,1.036,1.026,1.473,1.588c0.434,0.562,0.783,1.15,1.049,1.763l-0.828,0.629l-0.626,0.492l-0.681,0.55l-0.966,0.768   c-0.77-1.375-1.63-2.452-2.58-3.235c-0.95-0.781-2.062-1.32-3.34-1.617c-0.366,0.445-0.795,0.906-1.289,1.38   c-0.497,0.475-1.065,0.925-1.707,1.35c-0.644,0.425-1.354,0.821-2.13,1.188c-0.776,0.365-1.63,0.667-2.561,0.904   c-0.227-0.419-0.411-0.773-0.545-1.059L2.24,20.177c-0.121-0.256-0.233-0.509-0.336-0.759c-0.105-0.251-0.226-0.535-0.364-0.852   c0.752-0.165,1.397-0.356,1.93-0.577c0.536-0.219,1.013-0.492,1.44-0.82c0.423-0.327,0.809-0.727,1.157-1.197   c0.345-0.47,0.704-1.052,1.068-1.749c0-0.131-0.003-0.266-0.016-0.398c0-0.675,0.046-1.351,0.135-2.024   c0.098-0.809,0.27-1.559,0.513-2.248C8.01,8.862,8.33,8.239,8.723,7.681c0.395-0.556,0.871-0.993,1.423-1.31   c0.287,0.081,0.605,0.208,0.95,0.383l1.055,0.506l0.934,0.445c0.286,0.131,0.5,0.226,0.637,0.276   c-0.038,0.164,0.018,0.329,0.172,0.498c0.155,0.17,0.463,0.305,0.927,0.406c0.177,0.041,0.41,0.081,0.697,0.115   c0.286,0.036,0.602,0.026,0.943-0.031c0.342-0.054,0.71-0.159,1.105-0.313c0.398-0.153,0.796-0.409,1.204-0.767   c0.246,0.358,0.474,0.706,0.68,1.042l0.566,0.937l0.52,0.873c-0.602,0.542-1.262,0.993-1.976,1.351   c-0.602,0.317-1.309,0.558-2.121,0.72c-0.334,0.072-0.687,0.108-1.051,0.108c-0.497,0-1.01-0.065-1.546-0.198   c0,0.235-0.003,0.418-0.012,0.55L13.782,13.917z M14.214,5.741c-0.467,0-0.901-0.073-1.306-0.217   c-0.407-0.145-0.759-0.349-1.062-0.611c-0.302-0.262-0.542-0.568-0.727-0.916c-0.183-0.348-0.271-0.717-0.271-1.106   c0-0.39,0.088-0.761,0.272-1.115c0.185-0.352,0.424-0.664,0.727-0.935c0.302-0.273,0.654-0.48,1.062-0.624   C13.312,0.072,13.747,0,14.214,0c0.463,0,0.904,0.072,1.321,0.217c0.415,0.144,0.78,0.351,1.098,0.624   c0.316,0.271,0.563,0.583,0.74,0.935c0.182,0.354,0.266,0.725,0.266,1.115c0,0.389-0.084,0.758-0.266,1.106   c-0.177,0.348-0.424,0.654-0.74,0.916c-0.318,0.262-0.684,0.466-1.098,0.611C15.117,5.668,14.676,5.741,14.214,5.741z" fill="#ffd429"/>
	<g>
	</g>
	<g>
	</g>
	<g>
	</g>
	<g>
	</g>
	<g>
	</g>
	<g>
	</g>
	<g>
	</g>
	<g>
	</g>
	<g>
	</g>
	<g>
	</g>
	<g>
	</g>
	<g>
	</g>
	<g>
	</g>
	<g>
	</g>
	<g>
	</g>
</g>
<g>
</g>
<g>
</g>
<g>
</g>
<g>
</g>
<g>
</g>
<g>
</g>
<g>
</g>
<g>
</g>
<g>
</g>
<g>
</g>
<g>
</g>
<g>
</g>
<g>
</g>
<g>
</g>
<g>
</g>
</svg>
